Coordinates
version=1
nRows=38
nColumns=12
inDegrees=yes

Units are S.I. units (second, meters, Newtons, ...)
Angles are in degrees

endheader
time	SC_y	SC_z	SC_x	AC_y	AC_z	AC_x	GH_y	GH_z	GH_yy	EL_x	PS_y
       0.0              -23.74          6.875          8.836          44.04         -10.82         -8.365          108.6          13.15         -60.14          113.4          145.8
   0.01953              -23.74          6.876          8.839          44.05         -10.82         -8.362          108.5          13.14         -60.14          113.4          145.8
   0.03905              -23.74          6.877          8.842          44.05         -10.82          -8.36          108.5          13.14         -60.14          113.4          145.8
   0.05858              -23.73          6.878          8.845          44.05         -10.81         -8.357          108.5          13.13         -60.14          113.3          145.7
   0.07811              -23.73           6.88          8.848          44.05         -10.81         -8.354          108.4          13.13         -60.15          113.3          145.7
   0.09764              -23.73          6.881          8.852          44.06          -10.8          -8.35          108.4          13.12         -60.15          113.3          145.7
    0.1172              -23.73          6.882          8.856          44.06          -10.8         -8.347          108.4          13.12         -60.15          113.3          145.7
    0.1367              -23.73          6.884           8.86          44.06          -10.8         -8.343          108.3          13.11         -60.15          113.3          145.6
    0.1562              -23.73          6.886          8.864          44.07         -10.79         -8.339          108.3          13.11         -60.16          113.3          145.6
    0.1757              -23.73          6.887          8.868          44.07         -10.79         -8.335          108.3           13.1         -60.16          113.2          145.6
    0.1953              -23.73          6.889          8.873          44.07         -10.78         -8.331          108.2          13.09         -60.16          113.2          145.5
    0.2148              -23.72          6.891          8.879          44.08         -10.78         -8.326          108.2          13.09         -60.17          113.2          145.5
    0.2343              -23.72          6.894          8.884          44.08         -10.77         -8.321          108.1          13.08         -60.17          113.2          145.5
    0.2539              -23.72          6.896          8.891          44.09         -10.76         -8.315          108.1          13.07         -60.18          113.1          145.4
    0.2734              -23.72          6.899          8.897          44.09         -10.76         -8.309          108.0          13.06         -60.18          113.1          145.4
    0.2929              -23.72          6.902          8.905           44.1         -10.75         -8.302          107.9          13.05         -60.19          113.1          145.3
    0.3124              -23.72          6.905          8.912           44.1         -10.74         -8.295          107.9          13.04         -60.19          113.0          145.3
     0.332              -23.71          6.908          8.921          44.11         -10.73         -8.287          107.8          13.03          -60.2          113.0          145.2
    0.3515              -23.71          6.912          8.931          44.12         -10.72         -8.278          107.7          13.01         -60.21          112.9          145.1
     0.371              -23.71          6.916          8.941          44.13         -10.71         -8.269          107.6           13.0         -60.22          112.9          145.1
    0.3905               -23.7           6.92          8.952          44.14          -10.7         -8.259          107.5          12.98         -60.22          112.8          145.0
    0.4101               -23.7          6.925          8.965          44.15         -10.69         -8.247          107.4          12.96         -60.23          112.8          144.9
    0.4296               -23.7           6.93          8.978          44.16         -10.67         -8.235          107.2          12.94         -60.24          112.7          144.8
    0.4491              -23.69          6.936          8.993          44.17         -10.65         -8.221          107.1          12.92         -60.26          112.6          144.7
    0.4686              -23.69          6.943           9.01          44.18         -10.64         -8.205          107.0           12.9         -60.27          112.5          144.6
    0.4882              -23.68           6.95          9.029           44.2         -10.62         -8.188          106.8          12.87         -60.28          112.5          144.5
    0.5077              -23.68          6.958           9.05          44.21         -10.59         -8.169          106.6          12.84          -60.3          112.4          144.3
    0.5272              -23.67          6.968          9.074          44.23         -10.57         -8.147          106.4          12.81         -60.32          112.2          144.1
    0.5468              -23.66          6.978          9.101          44.25         -10.54         -8.122          106.1          12.77         -60.34          112.1          143.9
    0.5663              -23.65           6.99          9.132          44.28         -10.51         -8.094          105.8          12.73         -60.36          112.0          143.7
    0.5858              -23.64          7.004          9.166          44.31         -10.47         -8.062          105.5          12.68         -60.39          111.8          143.5
    0.6053              -23.63          7.019          9.206          44.34         -10.43         -8.026          105.2          12.62         -60.42          111.6          143.2
    0.6249              -23.62          7.037          9.253          44.37         -10.38         -7.984          104.7          12.56         -60.45          111.4          142.9
    0.6444              -23.61          7.058          9.306          44.42         -10.32         -7.935          104.2          12.48         -60.49          111.1          142.5
    0.6639              -23.59          7.083          9.369          44.47         -10.26         -7.877          103.7          12.39         -60.54          110.8          142.1
    0.6834              -23.57          7.111          9.443          44.52         -10.18         -7.809          103.0          12.29         -60.59          110.4          141.6
     0.703              -23.54          7.146          9.531          44.59         -10.09         -7.729          102.2          12.16         -60.66          110.0          140.9
    0.7225              -23.51          7.187          9.636          44.68         -9.975         -7.633          101.2          12.01         -60.74          109.5          140.2
